<mxfile host="app.diagrams.net" modified="2023-09-22T15:06:17.452Z" agent="Mozilla/5.0 (Windows NT 10.0; Win64; x64) AppleWebKit/537.36 (KHTML, like Gecko) Chrome/117.0.0.0 Safari/537.36" version="21.8.0" etag="_xN6orHwseytlKMLg7z5" type="github">
  <diagram name="Page-1" id="mddKR74MnkJqjxG5Cpyd">
    <mxGraphModel>
      <root>
        <mxCell id="0" />
        <mxCell id="1" parent="0" />
      </root>
    </mxGraphModel>
  </diagram>
</mxfile>
